<?xml version="1.0" standalone="no"?>
<!DOCTYPE svg PUBLIC "-//W3C//DTD SVG 20010904//EN"
 "http://www.w3.org/TR/2001/REC-SVG-20010904/DTD/svg10.dtd">
<svg version="1.0" xmlns="http://www.w3.org/2000/svg"
 width="700.000000pt" height="700.000000pt" viewBox="0 0 700.000000 700.000000"
 preserveAspectRatio="xMidYMid meet">
<metadata>
Created by potrace 1.11, written by Peter Selinger 2001-2013
</metadata>
<g transform="translate(0.000000,700.000000) scale(0.100000,-0.100000)"
fill="#000000" stroke="none">
<path d="M3328 6895 c-2 -1 -46 -5 -98 -9 -52 -3 -106 -8 -120 -10 -14 -2 -65
-10 -115 -16 -369 -49 -843 -212 -1170 -403 -293 -171 -501 -331 -730 -561
-369 -370 -633 -789 -803 -1276 -55 -156 -114 -381 -137 -522 -3 -18 -8 -44
-10 -58 -35 -177 -51 -578 -32 -811 8 -108 40 -336 52 -379 2 -8 7 -31 10 -50
23 -138 125 -464 197 -630 389 -899 1130 -1583 2048 -1891 126 -42 329 -96
425 -114 135 -24 274 -43 385 -52 165 -14 550 -7 660 12 14 2 45 6 70 9 104
13 129 17 220 37 149 32 245 57 379 101 110 36 160 55 306 116 22 9 104 49
181 88 781 398 1384 1093 1668 1923 40 117 106 360 120 441 3 19 8 46 11 60 3
14 7 43 10 65 3 22 7 54 10 70 3 17 7 43 10 59 25 157 25 647 1 796 -2 14 -7
48 -11 75 -12 93 -17 120 -36 215 -111 538 -338 1019 -686 1455 -104 130 -354
384 -468 475 -44 35 -82 67 -85 70 -3 3 -45 35 -95 71 -470 341 -1045 564
-1610 625 -33 4 -73 8 -90 10 -36 5 -463 13 -467 9z"/>
</g>
</svg>
